<?xml version="1.0" encoding="iso-8859-1"?>
<!-- Generator: Adobe Illustrator 19.0.0, SVG Export Plug-In . SVG Version: 6.00 Build 0)  -->
<svg version="1.1" id="Layer_1" xmlns="http://www.w3.org/2000/svg" xmlns:xlink="http://www.w3.org/1999/xlink" x="0px" y="0px"
	 viewBox="0 0 512 512" style="enable-background:new 0 0 512 512;" xml:space="preserve">
<path style="fill:#792A18;" d="M471.149,77.345h-65.362l32.681,348.596h32.681c18.049,0,32.681-14.632,32.681-32.681V110.026
	C503.83,91.977,489.197,77.345,471.149,77.345z"/>
<path style="fill:#95341D;" d="M212.426,76.255L256,457.532c18.05,0,32.681-14.631,32.681-32.681h149.787V76.255H212.426z"/>
<path style="fill:#AB5D4A;" d="M40.851,76.255c-18.049,0-32.681,14.632-32.681,32.681V392.17c0,18.049,14.632,32.681,32.681,32.681
	h182.468c0,18.05,14.631,32.681,32.681,32.681V76.255H40.851z"/>
<polygon style="fill:#A99E9B;" points="416.681,337.702 427.574,392.17 471.149,392.17 471.149,359.489 "/>
<path style="fill:#C1B8B5;" d="M234.213,337.702L256,417.222v7.629c0-17.974,14.706-32.681,32.681-32.681h137.26v-54.468H234.213z"
	/>
<path style="fill:#D8D1D0;" d="M40.851,359.489v32.681h182.468c17.974,0,32.681,14.706,32.681,32.681v-98.043L40.851,359.489z"/>
<polygon style="fill:#E26142;" points="386.755,468.426 412.612,457.532 438.468,468.426 438.468,337.702 386.755,337.702 "/>
<polygon style="fill:#D8D1D0;" points="427.574,43.574 394.894,201.532 427.574,359.489 471.149,359.489 471.149,43.574 "/>
<path style="fill:#F0EBEA;" d="M288.681,43.574C270.706,43.574,256,58.281,256,76.255l-32.681,157.957L256,384.545v7.626
	c0-17.974,14.706-32.681,32.681-32.681h138.894V247.827l-21.787-69.445l21.787-69.445V43.574H288.681z"/>
<path style="fill:#FFFFFF;" d="M223.319,43.574H40.851v315.915h182.468c17.974,0,32.681,14.706,32.681,32.681V76.255
	C256,58.281,241.294,43.574,223.319,43.574z"/>
<rect x="299.574" y="108.936" style="fill:#FFD159;" width="128" height="138.894"/>
<path d="M479.319,68.908V43.574c0-4.513-3.657-8.17-8.17-8.17H288.681c-13.348,0-25.221,6.435-32.681,16.365
	c-7.46-9.931-19.333-16.365-32.681-16.365H40.851c-4.513,0-8.17,3.657-8.17,8.17v25.333C14.057,72.703,0,89.208,0,108.936V392.17
	c0,22.526,18.325,40.851,40.851,40.851H215.97c3.795,18.624,20.302,32.681,40.03,32.681c19.727,0,36.234-14.057,40.031-32.681
	h58.043c4.513,0,8.17-3.657,8.17-8.17c0-4.513-3.657-8.17-8.17-8.17h-65.393c-4.513,0-8.17,3.657-8.17,8.17
	c0,13.515-10.996,24.511-24.511,24.511c-13.515,0-24.511-10.996-24.511-24.511c0-4.513-3.657-8.17-8.17-8.17H40.851
	c-13.515,0-24.511-10.996-24.511-24.511V108.936c0-10.651,6.831-19.733,16.34-23.105v273.659c0,4.513,3.657,8.17,8.17,8.17h182.468
	c13.515,0,24.511,10.996,24.511,24.511c-6.832-5.12-15.322-8.17-24.511-8.17H40.851c-4.513,0-8.17,3.657-8.17,8.17
	c0,4.513,3.657,8.17,8.17,8.17h182.468c13.515,0,24.511,10.996,24.511,24.511c0,4.513,3.657,8.17,8.17,8.17s8.17-3.657,8.17-8.17
	c0-13.515,10.996-24.511,24.511-24.511h65.393c4.513,0,8.17-3.657,8.17-8.17c0-4.513-3.657-8.17-8.17-8.17h-65.393
	c-9.189,0-17.678,3.05-24.511,8.191c0-13.535,10.996-24.531,24.511-24.531h89.904v100.766c0,2.738,1.372,5.292,3.653,6.807
	c2.278,1.513,5.166,1.784,7.691,0.722l22.684-9.557l22.684,9.557c1.02,0.429,2.098,0.641,3.171,0.641
	c1.585,0,3.16-0.461,4.519-1.363c2.281-1.515,3.653-4.07,3.653-6.807v-35.404h24.511c22.526,0,40.851-18.325,40.851-40.851V108.936
	C512,89.208,497.943,72.703,479.319,68.908z M223.319,351.319H49.021V51.745h174.298c13.515,0,24.511,10.996,24.511,24.511V359.51
	C240.997,354.369,232.508,351.319,223.319,351.319z M264.17,359.51V76.255c0-13.515,10.996-24.511,24.511-24.511h174.298v299.574
	H288.681C279.492,351.319,271.003,354.369,264.17,359.51z M430.298,456.118l-14.514-6.116c-2.029-0.853-4.315-0.853-6.344,0
	l-14.514,6.116V367.66h35.372V456.118z M495.66,392.17c0,13.515-10.996,24.511-24.511,24.511h-24.511v-16.34h24.511
	c4.513,0,8.17-3.657,8.17-8.17c0-4.513-3.657-8.17-8.17-8.17h-24.511v-16.34h24.511c4.513,0,8.17-3.657,8.17-8.17V85.831
	c9.509,3.373,16.34,12.455,16.34,23.105V392.17z"/>
<path d="M212.426,285.957h-128c-4.513,0-8.17,3.657-8.17,8.17c0,4.513,3.657,8.17,8.17,8.17h128c4.513,0,8.17-3.657,8.17-8.17
	C220.596,289.614,216.939,285.957,212.426,285.957z"/>
<path d="M212.426,239.66h-128c-4.513,0-8.17,3.657-8.17,8.17c0,4.513,3.657,8.17,8.17,8.17h128c4.513,0,8.17-3.657,8.17-8.17
	C220.596,243.317,216.939,239.66,212.426,239.66z"/>
<path d="M212.426,193.362h-128c-4.513,0-8.17,3.657-8.17,8.17s3.657,8.17,8.17,8.17h128c4.513,0,8.17-3.657,8.17-8.17
	S216.939,193.362,212.426,193.362z"/>
<path d="M212.426,147.064h-128c-4.513,0-8.17,3.657-8.17,8.17s3.657,8.17,8.17,8.17h128c4.513,0,8.17-3.657,8.17-8.17
	S216.939,147.064,212.426,147.064z"/>
<path d="M212.426,100.766h-128c-4.513,0-8.17,3.657-8.17,8.17s3.657,8.17,8.17,8.17h128c4.513,0,8.17-3.657,8.17-8.17
	S216.939,100.766,212.426,100.766z"/>
<path d="M435.745,294.128c0-4.513-3.657-8.17-8.17-8.17h-128c-4.513,0-8.17,3.657-8.17,8.17c0,4.513,3.657,8.17,8.17,8.17h128
	C432.088,302.298,435.745,298.641,435.745,294.128z"/>
<path d="M299.574,256h128c4.513,0,8.17-3.657,8.17-8.17v-53.106c0-4.513-3.657-8.17-8.17-8.17c-4.513,0-8.17,3.657-8.17,8.17v44.936
	h-111.66V117.106h111.66v44.936c0,4.513,3.657,8.17,8.17,8.17c4.513,0,8.17-3.657,8.17-8.17v-53.106c0-4.513-3.657-8.17-8.17-8.17
	h-128c-4.513,0-8.17,3.657-8.17,8.17V247.83C291.404,252.343,295.061,256,299.574,256z"/>
<g>
</g>
<g>
</g>
<g>
</g>
<g>
</g>
<g>
</g>
<g>
</g>
<g>
</g>
<g>
</g>
<g>
</g>
<g>
</g>
<g>
</g>
<g>
</g>
<g>
</g>
<g>
</g>
<g>
</g>
</svg>
