<svg id="Capa_1" enable-background="new 0 0 512 512" height="512" viewBox="0 0 512 512" width="512" xmlns="http://www.w3.org/2000/svg"><g><g><g><path d="m420.994 111.983c0-8.924-7.234-16.158-16.158-16.158h-55.683c-20.539 0-37.188 16.65-37.188 37.188v41.289h131.19v-40.703c0-8.924-7.234-16.158-16.158-16.158h-.544c-3.016-.001-5.459-2.444-5.459-5.458z" fill="#efc984"/><path d="m472.348 289.717-53.158-15.607h-83.217l-53.178 15.608c-19.062 5.595-32.155 23.083-32.155 42.949v84.948h253.86v-84.95c0-19.864-13.092-37.353-32.152-42.948z" fill="#4a80aa"/><g><path d="m472.348 289.717-53.158-15.607h-62.924l-.046 15.317 53.158 15.606c19.06 5.596 32.152 23.084 32.152 42.948v69.633h62.97v-84.95c0-19.863-13.092-37.352-32.152-42.947z" fill="#407093"/></g><path d="m407.649 417.615-19.531-87.084h-21.157l-19.53 87.084z" fill="#dd636e"/><g><g><g><g><g><g><g><g><path d="m406.765 288.798v-46.945h-58.412v46.945c0 16.13 29.206 17.563 29.206 17.563s29.206-1.433 29.206-17.563z" fill="#ffddce"/></g></g></g></g></g></g></g><path d="m443.154 168.884h-11.165c-6.21 0-11.244-5.034-11.244-11.244v-6.153c0-8.089-7.914-13.808-15.594-11.27-17.912 5.92-37.252 5.921-55.165.004l-.021-.007c-7.68-2.537-15.592 3.182-15.592 11.27v6.156c0 6.21-5.034 11.244-11.244 11.244h-11.165v18.386c0 4.698 3.809 8.507 8.507 8.507 1.482 0 2.688 1.161 2.782 2.641 1.794 28.44 25.414 50.954 54.306 50.954 28.892 0 52.513-22.514 54.306-50.954.093-1.479 1.3-2.641 2.782-2.641 4.698 0 8.507-3.809 8.507-8.507z" fill="#ffddce"/><g><path d="m426.995 117.44h-.544c-3.014 0-5.457-2.443-5.457-5.458 0-8.924-7.234-16.158-16.158-16.158h-24.946v78.477h63.265v-40.703c-.001-8.923-7.236-16.158-16.16-16.158z" fill="#eabc6b"/></g><g><path d="m431.989 168.884c-6.21 0-11.244-5.034-11.244-11.243v-6.153c0-8.089-7.914-13.808-15.594-11.27-8.212 2.714-16.724 4.169-25.262 4.395v60.169c0 4.03-.357 8.062-1.252 11.991-2.708 11.876-9.304 22.267-18.371 29.78 5.434 1.821 11.245 2.819 17.293 2.819 28.892 0 52.513-22.514 54.306-50.954.093-1.479 1.3-2.641 2.782-2.641 4.698 0 8.507-3.809 8.507-8.507v-18.386z" fill="#ffcbbe"/></g></g><g fill="#365e7d"><path d="m336.967 270.997-8.318 3.734c-4.748 2.132-5.894 8.356-2.217 12.039l23.036 23.072c2.922 2.845 7.521 3.02 10.651.406l18.064-15.089-30.796-23.013c-3.007-2.246-6.996-2.686-10.42-1.149z"/><path d="m407.716 272.291-29.533 22.868 16.978 14.516c3.11 2.66 7.731 2.526 10.682-.309l23.048-22.444c3.767-3.668 2.641-9.981-2.162-12.121l-8.479-3.778c-3.478-1.55-7.525-1.063-10.534 1.268z"/></g></g><path d="m483.738 504.032h-358.071v-105.683h378.833v84.921c0 11.466-9.295 20.762-20.762 20.762z" fill="#ddb7a0"/><path d="m441.153 398.349v94.742c0 6.042-4.898 10.941-10.941 10.941h53.526c11.466 0 20.762-9.295 20.762-20.762v-84.921z" fill="#d6a889"/><g><g><g><g><g><g><g><g><g><g><g><g><g><g><g><path d="m159.332 370.257v-45.654h-56.806v45.654c0 15.686 28.403 17.081 28.403 17.081s28.403-1.394 28.403-17.081z" fill="#ffddce"/></g></g></g></g></g></g></g></g></g></g></g></g></g></g><path d="m212.148 283.167c-3.715-12.393-5.604-25.262-5.608-38.2v-.032c-.013-41.743-33.856-75.576-75.6-75.576-41.743 0-75.587 33.833-75.6 75.576v.032c-.004 12.938-1.893 25.807-5.608 38.2-2.26 7.538-3.409 15.365-3.411 23.234-.005 14.231 9.007 26.904 22.451 31.571 40.267 13.98 84.07 13.98 124.337 0 13.444-4.668 22.456-17.34 22.451-31.571-.003-7.869-1.152-15.696-3.412-23.234z" fill="#407093"/><path d="m212.148 283.167c-3.715-12.394-5.604-25.262-5.608-38.2v-.032c-.013-41.743-33.856-75.576-75.6-75.576-11.297 0-22.006 2.496-31.632 6.938 25.942 11.972 43.958 38.192 43.967 68.638v.032c.004 12.938 1.893 25.807 5.608 38.2 2.26 7.538 3.409 15.365 3.411 23.234.005 14.231-9.007 26.904-22.451 31.571-9.997 3.471-20.212 6.078-30.536 7.825 31.262 5.291 63.531 2.684 93.801-7.825 13.444-4.668 22.456-17.34 22.451-31.571-.002-7.869-1.151-15.696-3.411-23.234z" fill="#365e7d"/></g><path d="m63.849 7.511h193.496c12.151 0 22.002 9.851 22.002 22.002v83.017c0 10.586-7.477 19.423-17.437 21.524-1.458.308-2.48 1.629-2.48 3.12v28.487c0 3.458-4.181 5.19-6.627 2.745l-32.934-32.934c-.601-.601-1.417-.939-2.267-.939h-153.753c-12.151 0-22.002-9.851-22.002-22.002v-83.018c0-12.151 9.851-22.002 22.002-22.002z" fill="#cbe2ff"/><path d="m257.345 7.511h-63.788c12.151 0 22.002 9.851 22.002 22.002v83.017c0 10.586-7.477 19.423-17.437 21.524-.404.085-.77.255-1.095.478h20.575c.85 0 1.666.338 2.267.939l32.934 32.934c2.445 2.445 6.627.713 6.627-2.745v-28.487c0-1.49 1.021-2.812 2.479-3.12 9.96-2.102 17.437-10.938 17.437-21.524v-83.016c.001-12.151-9.85-22.002-22.001-22.002z" fill="#bed8fb"/><path d="m223.112 371.15-63.78-12.144c-10.281 25.564-46.475 25.552-56.739-.018l-.067-.166-63.756 12.33c-18.537 5.441-31.27 22.448-31.27 41.768v70.808c0 11.483 9.321 20.785 20.804 20.761l216.652-.439c5.208-.011 9.424-4.235 9.424-9.443v-81.69c0-19.318-12.732-36.325-31.268-41.767z" fill="#e28086"/><path d="m245.011 504.106c5.186-.041 9.369-4.257 9.369-9.443v-81.745c0-19.318-12.732-36.325-31.268-41.767l-63.78-12.144c-5.115 12.718-16.642 19.1-28.201 19.16 1.156 9.07 8.006 16.541 17.187 18.289l11.529 2.195c20.402 4.382 31.268 13.708 31.268 33.027v72.855z" fill="#dd636e"/><g><path d="m395.161 309.675-16.978-14.516-18.063 15.089c-1.164.972-2.532 1.557-3.941 1.764l10.783 18.519h21.157l10.662-19.107c-1.3-.257-2.55-.833-3.62-1.749z" fill="#e28086"/></g></g><g><path d="m63.85 142.032h151.974l31.677 31.677c2.184 2.183 5.081 3.339 8.037 3.339 1.469 0 2.951-.285 4.367-.872 4.269-1.768 7.026-5.896 7.026-10.515v-25.229c11.729-4.039 19.917-15.252 19.917-27.902v-83.018c0-16.268-13.234-29.502-29.502-29.502h-193.496c-16.268 0-29.502 13.234-29.502 29.502v6.062c0 4.143 3.357 7.5 7.5 7.5s7.5-3.357 7.5-7.5v-6.062c0-7.996 6.506-14.502 14.502-14.502h193.496c7.996 0 14.502 6.506 14.502 14.502v83.018c0 6.815-4.83 12.781-11.484 14.186-4.887 1.03-8.433 5.429-8.433 10.459v19.751l-26.754-26.753c-2.021-2.025-4.712-3.141-7.574-3.141h-153.753c-7.996 0-14.502-6.506-14.502-14.502v-41.831c0-4.143-3.357-7.5-7.5-7.5s-7.5 3.357-7.5 7.5v41.831c0 16.267 13.234 29.502 29.502 29.502z"/><path d="m504.5 345.939c4.143 0 7.5-3.357 7.5-7.5v-5.774c0-23.035-15.437-43.654-37.539-50.144l-40.664-11.939c-1.172-1.074-2.523-1.967-4.016-2.632l-8.48-3.778c-2.259-1.006-4.652-1.516-7.036-1.546v-17.846c13.293-9.812 22.575-24.82 24.73-42.103 6.721-1.899 11.659-8.087 11.659-15.406v-53.672c0-12.57-9.854-22.882-22.244-23.616-1.019-12.113-11.203-21.657-23.575-21.657h-55.683c-24.642 0-44.688 20.047-44.688 44.688v54.257c0 7.32 4.938 13.508 11.659 15.407 2.158 17.281 11.439 32.288 24.73 42.1v17.818c-2.363.045-4.731.56-6.959 1.56l-8.317 3.734c-1.48.665-2.821 1.555-3.985 2.625l-40.91 12.007c-22.104 6.487-37.543 27.108-37.543 50.146v40.729c-5.215-4.262-11.285-7.496-17.915-9.442-.659-.193 3.184.583-58.393-11.154v-.162c9.729-1.791 19.34-4.318 28.736-7.58 20.823-7.229 34.376-28.649 23.765-64.044-3.509-11.704-5.289-23.833-5.293-36.081-.014-45.808-37.292-83.074-83.1-83.074h-.001c-45.807 0-83.085 37.267-83.1 83.106-.004 12.218-1.784 24.347-5.292 36.049-10.501 35.037 2.632 56.707 23.764 64.044 9.389 3.26 18.992 5.785 28.713 7.576-61.312 11.869-57.723 11.133-58.366 11.322-21.583 6.333-36.657 26.467-36.657 48.962v70.809c0 15.658 12.681 28.262 28.262 28.262h.058c.129 0 455.29-.458 455.419-.458 15.584 0 28.262-12.678 28.262-28.262v-109.769c0-4.143-3.357-7.5-7.5-7.5s-7.5 3.357-7.5 7.5v17.348h-87.667l-13.269-59.164 7.179-12.866c2.849-.551 5.577-1.914 7.832-4.08l23.048-22.444c1.478-1.439 2.617-3.141 3.383-4.99l32.73 9.609c15.757 4.626 26.763 19.328 26.763 35.751v5.774c0 4.143 3.357 7.5 7.5 7.5zm-185.036-212.926c0-16.37 13.318-29.688 29.688-29.688h55.683c4.774 0 8.659 3.884 8.659 8.658 0 7.145 5.812 12.957 12.957 12.957h.544c4.774 0 8.659 3.884 8.659 8.658v27.785h-3.666c-2.064 0-3.743-1.679-3.743-3.743v-6.153c0-13.252-13.012-22.5-25.447-18.391-16.27 5.377-34.189 5.378-50.48-.003-12.546-4.147-25.444 5.18-25.444 18.392v6.155c0 2.064-1.68 3.743-3.744 3.743h-3.665v-28.37zm11.274 64.93c-.344-5.42-4.854-9.666-10.268-9.666-.556 0-1.007-.452-1.007-1.007v-10.887h3.665c10.336 0 18.744-8.408 18.744-18.743v-6.155c0-2.97 2.884-5.09 5.761-4.143 19.306 6.379 40.568 6.377 59.872-.004 2.83-.94 5.739 1.167 5.739 4.148v6.153c0 10.335 8.408 18.743 18.743 18.743h3.666v10.887c0 .555-.452 1.007-1.008 1.007-5.413 0-9.923 4.246-10.267 9.669-1.553 24.631-22.119 43.926-46.821 43.926-24.7.001-45.265-19.294-46.819-43.928zm52.977 125.089h-12.442l-4.829-8.294 11.683-9.759 10.603 9.066zm10.244 67.817h-32.839l11.845-52.817h9.148zm-15.857-105.113-22.248-16.625v-16.176c6.77 2.546 14.089 3.936 21.705 3.936 7.617 0 14.936-1.39 21.706-3.936v16.413zm-38.063-7.897c.938-.423 2.032-.301 2.858.315 7.442 5.561 12.424 9.284 23.194 17.332l-10.78 9.005c-.054.045-.116.075-.18.092-.032.004-.064.009-.096.014-.115.004-.23-.034-.32-.114l-22.91-22.946zm-268.808 53.049c-18.959-6.583-20.057-26.42-14.314-45.567 3.926-13.099 5.919-26.675 5.923-40.383.013-37.539 30.562-68.079 68.101-68.079s68.088 30.54 68.1 68.11c.004 13.675 1.997 27.251 5.924 40.352 5.742 19.152 4.643 38.985-14.315 45.567-38.504 13.367-80.915 13.369-119.419 0zm80.601 23.921v2.652c-8.217 17.68-33.707 17.606-41.805-.161v-2.492c13.731 1.452 27.742 1.488 41.805.001zm95.048 139.799c0 1.04-.817 1.888-1.86 1.93-.026.001-.052.002-.078.004-.005 0-.01 0-.015.001-.055.002-.112.005-.171.009l-216.467.438h-.026c-7.303 0-13.263-5.908-13.263-13.262v-70.809c0-15.77 10.493-29.897 25.56-34.475l57.775-11.174c14.536 24.56 50.611 24.486 65.166.164l57.833 11.011c15.491 4.711 25.546 18.956 25.546 34.472zm11.26-161.941c0-16.425 11.007-31.127 26.768-35.753l32.988-9.682c.739 1.784 1.826 3.432 3.23 4.837l23.036 23.071c.025.025.051.05.076.075 2.146 2.089 4.745 3.438 7.478 4.037l7.283 12.508-13.251 59.087h-87.608zm238.86 73.182v77.421c0 7.312-5.949 13.262-13.262 13.262h-221.965c.071-.631.107-1.273.107-1.924v-81.69c0-2.373-.165-4.733-.492-7.068 32.921-.001 183.763-.001 235.612-.001zm-96.353-101.892c-.089.085-.201.128-.314.128-.059-.012-.118-.024-.177-.035-.043-.018-.084-.042-.122-.074l-9.974-8.528 22.247-17.226c.826-.642 1.934-.774 2.889-.349l8.395 3.741z"/></g></g></svg>