<svg id="Capa_1" enable-background="new 0 0 511.997 511.997" height="512" viewBox="0 0 511.997 511.997" width="512" xmlns="http://www.w3.org/2000/svg"><g><path d="m364.124 449.309h9.342c10.319 0 18.684 8.365 18.684 18.684 0 10.319-8.365 18.684-18.684 18.684h-117.538c-5.047 0-9.93-1.709-13.935-4.78-10.563-8.099-21.741-9.815-35.326-10.622v-118.812c31.951-36.506 72.44-39.936 69.607-94.487-.49-9.44 7.032-17.365 16.484-17.365 7.23 0 13.658 4.693 15.768 11.608 8.575 28.108 10.72 56.004-.601 84.985h85.654c10.319 0 18.684 8.365 18.684 18.684 0 10.319-8.365 18.684-18.684 18.684h-23.244 16.917c10.319 0 18.684 8.365 18.684 18.684 0 10.319-8.365 18.684-18.684 18.684h-16.917 10.705c10.319 0 18.684 8.365 18.684 18.684 0 10.319-8.365 18.684-18.684 18.684h-16.916z" fill="#ffcebf"/><path d="m299.225 257.978c2.691 51.78-33.657 57.503-64.677 89.165-3.157 3.223-4.93 7.559-4.93 12.07v112.063c13.586.803 24.763 2.524 35.32 10.626 4.005 3.064 8.893 4.774 13.942 4.774h-22.95c-5.049 0-9.937-1.71-13.942-4.774-10.557-8.101-21.734-9.823-35.32-10.626v-118.812c31.947-36.502 72.442-39.933 69.608-94.486-.493-9.444 7.034-17.362 16.478-17.362 3.615 0 7.034 1.17 9.811 3.202.597.436 1.159.918 1.687 1.434-3.317 3.179-5.291 7.746-5.027 12.726z" fill="#ffb09e"/><path d="m470.283 7.506h-428.569c-9.611 0-17.403 7.706-17.403 17.213v107.541c0 9.506 7.792 17.213 17.403 17.213h178.64l35.644 54.075 35.644-54.075h178.64c9.611 0 17.403-7.706 17.403-17.213v-107.542c.001-9.506-7.791-17.212-17.402-17.212z" fill="#eaf6ff"/><g fill="#ffde5c"><path d="m98.4 46.571 7.531 15.092c.73 1.463 2.141 2.477 3.774 2.712l16.839 2.42c4.111.591 5.753 5.588 2.778 8.456l-12.185 11.747c-1.181 1.139-1.72 2.78-1.442 4.388l2.876 16.588c.702 4.05-3.595 7.138-7.273 5.226l-15.061-7.832c-1.46-.759-3.205-.759-4.665 0l-15.06 7.832c-3.677 1.912-7.975-1.176-7.273-5.226l2.876-16.588c.279-1.608-.26-3.249-1.442-4.388l-12.183-11.747c-2.975-2.868-1.333-7.865 2.778-8.456l16.839-2.42c1.633-.235 3.044-1.249 3.774-2.712l7.531-15.092c1.838-3.685 7.15-3.685 8.988 0z"/><path d="m179.447 46.571 7.531 15.092c.73 1.463 2.141 2.477 3.774 2.712l16.839 2.42c4.111.591 5.753 5.588 2.778 8.456l-12.185 11.747c-1.181 1.139-1.72 2.78-1.442 4.388l2.876 16.588c.702 4.05-3.595 7.138-7.273 5.226l-15.061-7.832c-1.46-.759-3.205-.759-4.665 0l-15.061 7.832c-3.677 1.912-7.975-1.176-7.273-5.226l2.876-16.588c.279-1.608-.26-3.249-1.441-4.388l-12.185-11.747c-2.975-2.868-1.333-7.865 2.778-8.456l16.839-2.42c1.633-.235 3.044-1.249 3.774-2.712l7.531-15.092c1.839-3.685 7.151-3.685 8.99 0z"/><path d="m260.493 46.571 7.531 15.092c.73 1.463 2.141 2.477 3.774 2.712l16.839 2.42c4.111.591 5.753 5.588 2.778 8.456l-12.185 11.747c-1.181 1.139-1.72 2.78-1.441 4.388l2.876 16.588c.702 4.05-3.595 7.138-7.272 5.226l-15.061-7.832c-1.46-.759-3.205-.759-4.665 0l-15.061 7.832c-3.677 1.912-7.975-1.176-7.273-5.226l2.876-16.588c.279-1.608-.26-3.249-1.442-4.388l-12.185-11.747c-2.975-2.868-1.333-7.865 2.778-8.456l16.839-2.42c1.633-.235 3.044-1.249 3.774-2.712l7.531-15.092c1.838-3.685 7.151-3.685 8.989 0z"/><path d="m341.54 46.571 7.531 15.092c.73 1.463 2.141 2.477 3.774 2.712l16.839 2.42c4.111.591 5.753 5.588 2.778 8.456l-12.185 11.747c-1.181 1.139-1.72 2.78-1.442 4.388l2.876 16.588c.702 4.05-3.595 7.138-7.273 5.226l-15.061-7.832c-1.46-.759-3.205-.759-4.665 0l-15.061 7.832c-3.677 1.912-7.975-1.176-7.273-5.226l2.876-16.588c.279-1.608-.26-3.249-1.441-4.388l-12.185-11.747c-2.975-2.868-1.333-7.865 2.778-8.456l16.839-2.42c1.633-.235 3.044-1.249 3.774-2.712l7.531-15.092c1.839-3.685 7.151-3.685 8.99 0z"/><path d="m422.586 46.571 7.531 15.092c.73 1.463 2.141 2.477 3.774 2.712l16.839 2.42c4.111.591 5.753 5.588 2.778 8.456l-12.185 11.747c-1.181 1.139-1.72 2.78-1.441 4.388l2.876 16.588c.702 4.05-3.595 7.138-7.273 5.226l-15.061-7.832c-1.46-.759-3.205-.759-4.665 0l-15.061 7.832c-3.677 1.912-7.975-1.176-7.273-5.226l2.876-16.588c.279-1.608-.26-3.249-1.441-4.388l-12.185-11.747c-2.975-2.868-1.333-7.865 2.778-8.456l16.839-2.42c1.633-.235 3.044-1.249 3.774-2.712l7.531-15.092c1.838-3.685 7.151-3.685 8.989 0z"/></g><path d="m170.979 337.153h35.687v149.525h-35.687z" fill="#f5fcff"/><path d="m170.98 337.156h22.95v149.52h-22.95z" fill="#d8ecfe"/><path d="m99.734 318.462h71.246v186.038h-71.246z" fill="#8cbdf9"/><path d="m99.731 318.463h22.95v186.034h-22.95z" fill="#73a2da"/><g><path d="m141.248 59.371c-2.629.378-4.984 1.542-6.819 3.273-1.835-1.731-4.19-2.895-6.819-3.273l-15.556-2.235-6.943-13.912c-4.599-9.224-17.811-9.219-22.411-.001l-6.942 13.913-15.558 2.235c-12.951 2.129-13.951 13.379-6.915 21.279l11.207 10.805-2.642 15.237c-1.352 14.972 6.617 16.253 18.122 13.162l13.934-7.246 13.934 7.246c8.13 4.229 19.97-2.508 18.122-13.162l-2.642-15.237 11.109-10.71 11.109 10.71-2.643 15.237c-1.847 10.654 9.992 17.391 18.122 13.162l13.935-7.246 13.934 7.246c11.362 5.146 19.612-1.354 18.122-13.162l-2.643-15.237 11.109-10.71 11.109 10.71-2.642 15.237c-1.847 10.654 9.992 17.391 18.122 13.162l13.934-7.245 13.934 7.245c11.316 4.896 20.566-.354 18.122-13.162l-2.642-15.237 11.11-10.71 11.109 10.71-2.643 15.237c-1.847 10.654 9.992 17.391 18.122 13.162l13.935-7.246 13.934 7.246c12.511 4.646 19.52-.854 18.122-13.162l-2.643-15.237 11.11-10.71 11.108 10.71-2.642 15.237c-1.847 10.654 9.992 17.391 18.122 13.162l13.934-7.246 13.934 7.246c11.474 5.396 19.974-.604 18.122-13.162l-2.642-15.237 11.208-10.805c8.285-8.4 5.785-19.15-6.917-21.279l-15.557-2.235-6.942-13.913c-5.549-10.723-16.779-11.294-22.411 0l-6.943 13.913-15.556 2.235c-2.629.378-4.984 1.542-6.819 3.273-1.834-1.731-4.19-2.895-6.819-3.273l-15.557-2.235-6.942-13.913c-4.752-10.473-16.776-11.291-22.411 0l-6.942 13.913-15.557 2.235c-2.629.378-4.985 1.542-6.819 3.272-1.835-1.73-4.19-2.895-6.819-3.272l-15.556-2.235-6.942-13.913c-5.456-11.223-16.777-11.292-22.412 0l-6.942 13.913-15.556 2.235c-2.629.378-4.984 1.542-6.819 3.272-1.834-1.731-4.19-2.895-6.819-3.272l-15.554-2.235-6.942-13.913c-5.159-11.223-16.776-11.292-22.411 0l-6.942 13.913zm-29.315 22.227c-2.977 2.868-4.333 7.008-3.627 11.07l2.005 11.565-10.614-5.521c-1.813-.941-3.801-1.413-5.79-1.413s-3.979.472-5.794 1.414l-10.613 5.519 2.005-11.563c.706-4.064-.65-8.204-3.626-11.071l-8.419-8.117 11.711-1.683c4.068-.584 7.589-3.12 9.42-6.787l5.314-10.65 5.313 10.648c1.828 3.667 5.35 6.204 9.419 6.789l11.713 1.684zm291.426-9.799c4.069-.585 7.591-3.122 9.418-6.787l5.314-10.65 5.315 10.652c1.83 3.665 5.351 6.201 9.418 6.785l11.712 1.683-8.418 8.116c-2.977 2.868-4.333 7.008-3.627 11.07l2.005 11.564-10.615-5.521c-3.627-1.884-7.957-1.882-11.582.002l-10.613 5.52 2.005-11.563c.706-4.064-.65-8.204-3.626-11.071l-8.419-8.116zm-81.048 0c4.068-.584 7.589-3.12 9.42-6.787l5.314-10.65 5.314 10.652c1.83 3.665 5.351 6.201 9.418 6.785l11.712 1.684-8.42 8.117c-2.974 2.867-4.328 7.004-3.625 11.068l2.006 11.564-10.614-5.52c-3.627-1.885-7.957-1.884-11.584.001l-10.613 5.519 2.007-11.566c.702-4.063-.652-8.199-3.627-11.067l-8.419-8.117zm-81.045 0c4.069-.585 7.591-3.122 9.418-6.787l5.314-10.651 5.313 10.649c1.828 3.667 5.35 6.204 9.419 6.789l11.713 1.684-8.418 8.115c-2.977 2.868-4.333 7.008-3.627 11.07l2.005 11.565-10.614-5.521c-3.627-1.883-7.956-1.885-11.583.001l-10.613 5.52 2.005-11.563c.706-4.064-.65-8.204-3.626-11.071l-8.419-8.116zm-71.628-6.787 5.314-10.65 5.314 10.652c1.83 3.665 5.351 6.201 9.418 6.785l11.712 1.683-8.42 8.118c-2.974 2.867-4.328 7.004-3.625 11.068l2.006 11.564-10.614-5.52c-1.813-.942-3.802-1.413-5.791-1.413s-3.979.472-5.793 1.414l-10.613 5.519 2.007-11.566c.702-4.063-.652-8.199-3.627-11.067l-8.419-8.116 11.711-1.684c4.069-.584 7.589-3.12 9.42-6.787z"/><path d="m249.736 207.679c1.388 2.105 3.741 3.373 6.263 3.373s4.875-1.268 6.263-3.373l33.418-50.709h76.447c4.143 0 7.5-3.357 7.5-7.5s-3.357-7.5-7.5-7.5h-80.487c-2.521 0-4.875 1.268-6.263 3.373l-29.379 44.579-29.379-44.579c-1.388-2.105-3.741-3.373-6.263-3.373h-178.644c-5.456 0-9.896-4.357-9.896-9.713v-107.544c0-5.355 4.439-9.713 9.896-9.713h113.11c4.143 0 7.5-3.357 7.5-7.5s-3.357-7.5-7.5-7.5h-113.11c-13.727 0-24.895 11.086-24.895 24.713v107.544c0 13.627 11.168 24.713 24.896 24.713h174.605z"/><path d="m470.285 0h-277.961c-4.143 0-7.5 3.357-7.5 7.5s3.357 7.5 7.5 7.5h277.961c5.456 0 9.896 4.357 9.896 9.713v107.544c0 5.355-4.439 9.713-9.896 9.713h-60.657c-4.143 0-7.5 3.357-7.5 7.5s3.357 7.5 7.5 7.5h60.657c13.728 0 24.896-11.086 24.896-24.713v-107.544c-.001-13.627-11.169-24.713-24.896-24.713z"/><path d="m419.763 355.889c0-14.438-11.746-26.185-26.185-26.185h-75.168c7.213-24.525 6.3-50.137-2.711-79.675-3.089-10.119-12.309-16.918-22.942-16.918-15.221 1.554-23.213 9.972-23.975 25.254 1.717 33.039-13.647 44.505-34.911 60.374-6.361 4.747-13.245 9.888-20.108 16.003-1.005-2.958-3.799-5.089-7.097-5.089h-28.186v-11.189c0-4.143-3.357-7.5-7.5-7.5h-71.249c-4.143 0-7.5 3.357-7.5 7.5v91.387c0 4.143 3.357 7.5 7.5 7.5s7.5-3.357 7.5-7.5v-83.887h56.249v171.033h-56.249v-49.646c0-4.143-3.357-7.5-7.5-7.5s-7.5 3.357-7.5 7.5v57.146c0 4.143 3.357 7.5 7.5 7.5h71.249c4.143 0 7.5-3.357 7.5-7.5v-10.319h28.187c4.143 0 7.5-3.357 7.5-7.5v-7.253c9.392 1.069 16.459 3.209 23.262 8.424 5.322 4.081 11.892 6.329 18.499 6.329h117.539c20.725 0 33.551-24.131 21.367-41.303 12.401-7.715 16.075-26.099 7.135-37.971 11.719-7.99 14.914-25.752 6.25-37.316 6.96-4.711 11.544-12.68 11.544-21.699zm-220.596 123.289h-20.687v-134.525h20.687v126.623zm194.412-112.106h-23.243c-4.143 0-7.5 3.357-7.5 7.5s3.357 7.5 7.5 7.5h16.917c6.167 0 11.184 5.018 11.184 11.185s-5.017 11.185-11.184 11.185h-16.917c-4.143 0-7.5 3.357-7.5 7.5s3.357 7.5 7.5 7.5h10.705c6.167 0 11.185 5.017 11.185 11.184s-5.018 11.185-11.185 11.185h-16.917c-4.143 0-7.5 3.357-7.5 7.5s3.357 7.5 7.5 7.5h9.343c6.167 0 11.184 5.018 11.184 11.185s-5.017 11.184-11.184 11.184h-117.54c-3.325 0-6.653-1.147-9.371-3.232-10.498-8.048-21.601-10.554-32.39-11.619v-108.997c9.213-10.046 19.097-17.423 28.676-24.571 22.141-16.522 43.053-32.129 40.921-73.173.285-5.734 3.284-8.893 8.994-9.477 3.93 0 7.464 2.589 8.595 6.296 9.233 30.267 9.103 55.708-.414 80.068-.901 2.308-.604 4.912.793 6.958 1.397 2.047 3.716 3.271 6.193 3.271h85.654c6.167 0 11.185 5.018 11.185 11.185s-5.017 11.183-11.184 11.183z"/></g><path d="m135.378 370.529c-4.753 0-8.606-3.853-8.606-8.606 0-4.753 3.853-8.606 8.606-8.606 4.753 0 8.606 3.853 8.606 8.606 0 4.753-3.853 8.606-8.606 8.606z"/></g></svg>