<svg width="500" height="500" viewBox="0 0 500 500" fill="none" xmlns="http://www.w3.org/2000/svg">
<path d="M357.347 314.465H334.763L326.758 306.747C354.774 274.157 371.641 231.847 371.641 185.82C371.641 83.1904 288.451 0 185.82 0C83.1904 0 0 83.1904 0 185.82C0 288.451 83.1904 371.641 185.82 371.641C231.847 371.641 274.157 354.774 306.747 326.758L314.465 334.763V357.347L457.404 500L500 457.404L357.347 314.465ZM185.82 314.465C114.637 314.465 57.1755 257.004 57.1755 185.82C57.1755 114.637 114.637 57.1755 185.82 57.1755C257.004 57.1755 314.465 114.637 314.465 185.82C314.465 257.004 257.004 314.465 185.82 314.465Z" fill="rgb(150, 150, 150)"/>
</svg>
